<svg width="19" height="19" viewBox="0 0 19 19" fill="none" xmlns="http://www.w3.org/2000/svg">
<path d="M0.720703 2.92017L9.3604 5.08013V18.0399H0.720703V2.92017Z" fill="#C2D3FD"/>
<path d="M12.2402 10.8398L15.8401 11.8684V18.0397H12.2402V10.8398Z" fill="#C2D3FD"/>
<path d="M0.75 1.80667C0.75 1.36968 1.15108 1.04276 1.5791 1.13089L10.9387 3.05791C11.2594 3.12394 11.4896 3.40627 11.4896 3.7337V17.3198C11.4896 17.7008 11.1807 18.0098 10.7996 18.0098H1.43997C1.05891 18.0098 0.75 17.7008 0.75 17.3198V1.80667Z" stroke="#333333" stroke-width="1.5"/>
<path d="M11.5195 7.95972L17.4269 9.19675C17.7604 9.26659 17.9993 9.56069 17.9993 9.90145V17.3196C17.9993 17.7172 17.677 18.0396 17.2793 18.0396H11.5195" stroke="#333333" stroke-width="1.5"/>
<path d="M8.63821 18.7599V14.44C8.63821 14.0423 8.31586 13.72 7.91823 13.72H5.03834C4.64071 13.72 4.31836 14.0423 4.31836 14.44V18.7599" stroke="#333333" stroke-width="1.5"/>
<line x1="5.06836" y1="6.48975" x2="7.16823" y2="6.48975" stroke="#333333" stroke-width="1.5" stroke-linecap="round"/>
<line x1="5.06836" y1="10.0898" x2="7.16823" y2="10.0898" stroke="#333333" stroke-width="1.5" stroke-linecap="round"/>
<line x1="14.4297" y1="11.5298" x2="15.0896" y2="11.5298" stroke="#333333" stroke-width="1.5" stroke-linecap="round"/>
<line x1="14.4297" y1="14.4097" x2="15.0896" y2="14.4097" stroke="#333333" stroke-width="1.5" stroke-linecap="round"/>
</svg>
