<svg width="34" height="34" viewBox="0 0 34 34" fill="none" xmlns="http://www.w3.org/2000/svg">
<path d="M30 5.77197H8V14.772H20.0526L22.8158 10.772H30V5.77197Z" fill="#356DF8" fill-opacity="0.3"/>
<mask id="path-2-inside-1_773_289" fill="white">
<path fill-rule="evenodd" clip-rule="evenodd" d="M30 9.77197H24.1407C22.8033 9.77197 21.5544 10.4404 20.8125 11.5532L18.6667 14.772H4C1.79086 14.772 0 16.5628 0 18.772V29.772C0 31.9811 1.79086 33.772 4 33.772H30C32.2091 33.772 34 31.9811 34 29.772V18.772V14.772V13.772C34 11.5628 32.2091 9.77197 30 9.77197Z"/>
</mask>
<path d="M20.8125 11.5532L22.4766 12.6626L22.4766 12.6626L20.8125 11.5532ZM18.6667 14.772L20.3308 15.8814L19.737 16.772H18.6667V14.772ZM24.1407 7.77197H30V11.772H24.1407V7.77197ZM19.1484 10.4438C20.2612 8.77458 22.1346 7.77197 24.1407 7.77197V11.772C23.472 11.772 22.8476 12.1062 22.4766 12.6626L19.1484 10.4438ZM17.0026 13.6626L19.1484 10.4438L22.4766 12.6626L20.3308 15.8814L17.0026 13.6626ZM18.6667 16.772H4V12.772H18.6667V16.772ZM4 16.772C2.89543 16.772 2 17.6674 2 18.772H-2C-2 15.4583 0.686291 12.772 4 12.772V16.772ZM2 18.772V29.772H-2V18.772H2ZM2 29.772C2 30.8765 2.89543 31.772 4 31.772V35.772C0.686291 35.772 -2 33.0857 -2 29.772H2ZM4 31.772H30V35.772H4V31.772ZM30 31.772C31.1046 31.772 32 30.8765 32 29.772H36C36 33.0857 33.3137 35.772 30 35.772V31.772ZM32 29.772V18.772H36V29.772H32ZM32 18.772V14.772H36V18.772H32ZM36 13.772V14.772H32V13.772H36ZM30 7.77197C33.3137 7.77197 36 10.4583 36 13.772H32C32 12.6674 31.1046 11.772 30 11.772V7.77197Z" fill="black" mask="url(#path-2-inside-1_773_289)"/>
<path d="M4 15.272V3.27197C4 2.1674 4.89543 1.27197 6 1.27197H28C29.1046 1.27197 30 2.1674 30 3.27197V11.272" stroke="#161616" stroke-width="2"/>
<path d="M16 28.272C13.3333 28.272 8 28.272 8 28.272" stroke="#161616" stroke-width="2" stroke-linecap="round"/>
</svg>
