<svg width="20" height="16" viewBox="0 0 20 16" fill="none" xmlns="http://www.w3.org/2000/svg">
<path d="M18.3327 3.33325V12.6666C18.3327 13.197 18.1301 13.7057 17.7694 14.0808C17.4088 14.4559 16.9196 14.6666 16.4096 14.6666H3.58909C3.07906 14.6666 2.58992 14.4559 2.22927 14.0808C1.86862 13.7057 1.66602 13.197 1.66602 12.6666V3.33325M18.3327 3.33325C18.3327 2.80282 18.1301 2.29411 17.7694 1.91904C17.4088 1.54397 16.9196 1.33325 16.4096 1.33325H3.58909C3.07906 1.33325 2.58992 1.54397 2.22927 1.91904C1.86862 2.29411 1.66602 2.80282 1.66602 3.33325M18.3327 3.33325V3.54925C18.3327 3.89071 18.2487 4.2265 18.0886 4.52463C17.9285 4.82275 17.6977 5.07328 17.4182 5.25236L11.0079 9.35458C10.7047 9.54884 10.3555 9.6517 9.99935 9.6517C9.6432 9.6517 9.29404 9.54884 8.9908 9.35458L2.58055 5.25325C2.30099 5.07417 2.07018 4.82364 1.91009 4.52552C1.75001 4.22739 1.66598 3.8916 1.66602 3.55014V3.33325" stroke="#333333" stroke-width="1.5" stroke-linecap="round" stroke-linejoin="round"/>
</svg>
