<svg width="115" height="116" viewBox="0 0 115 116" fill="none" xmlns="http://www.w3.org/2000/svg">
<circle cx="57.3623" cy="57.9644" r="57.2583" fill="#F2F5FF"/>
<mask id="mask0_1_1164" style="mask-type:alpha" maskUnits="userSpaceOnUse" x="0" y="0" width="115" height="116">
<circle cx="57.3623" cy="57.9644" r="57.2583" fill="#EBF0FF"/>
</mask>
<g mask="url(#mask0_1_1164)">
<path d="M36.9524 53.1853C35.8877 50.5884 36.5088 40.0745 36.9524 35.1422L38.689 31.7611C41.2318 30.4356 46.5121 27.7683 47.2911 27.7034C48.265 27.6223 57.354 26.8108 58.0032 26.8108C58.5226 26.8108 65.6316 30.111 69.1211 31.7611V38.4156L75.9379 45.1512C76.9117 45.557 77.1552 47.9753 70.3384 54.4026C61.8174 62.4367 61.087 67.4681 61.087 68.2797C61.087 68.9289 60.546 72.2291 60.2755 73.798H53.7022C53.7292 73.3652 53.7671 72.1101 53.7022 70.5519C53.621 68.6043 49.4011 65.7639 44.2073 64.222C39.0136 62.6802 38.2833 56.4314 36.9524 53.1853Z" fill="white"/>
<path d="M34.321 31.6295C34.321 31.6295 30.2261 29.5232 33.3267 26.2049C36.4273 22.8866 39.7515 22.663 39.9692 22.3277C39.9692 22.3277 36.645 20.3332 41.5224 17.3443C46.3999 14.3555 62.7854 8.92503 68.9867 15.5734C68.9867 15.5734 72.5756 18.4504 73.4934 22.5512C73.4934 22.5512 80.3889 24.7634 81.2773 28.6407C81.2773 28.6407 92.5449 40.3066 77.5849 53.6655C77.5849 53.6655 72.1362 58.1075 66.9983 57.2067C66.9983 57.2067 75.0467 51.7077 73.4934 47.7481C71.9402 43.7885 65.3271 35.6244 65.3271 31.7472C65.3271 31.7472 62.1147 34.2947 58.7905 34.1829C58.7905 34.1829 55.3546 34.1829 56.1312 31.1941C56.1312 31.1941 41.3989 40.2782 36.8627 38.8368C36.8627 38.8368 27.7786 39.1663 34.3151 31.6354L34.321 31.6295Z" fill="#A6BBFC"/>
<path d="M37.1909 33.2773C37.1909 33.2773 32.2076 59.0824 43.6157 64.0657C43.6157 64.0657 49.3756 66.0603 51.6996 68.2724C54.0236 70.4846 53.4706 70.5964 53.4706 71.8143" stroke="#7790DE" stroke-width="1.91684" stroke-miterlimit="10" stroke-linecap="round"/>
<path d="M67.538 57.0884C67.538 57.0884 63.4431 61.2951 62.3311 63.625C61.2191 65.9548 60.5602 72.3737 61.1132 72.815" stroke="#7790DE" stroke-width="1.91684" stroke-miterlimit="10" stroke-linecap="round"/>
<path d="M51.3069 71.1143C51.3069 71.1143 56.0667 73.9406 61.6089 71.6184C61.6089 71.6184 86.4138 86.2541 87.967 89.5899C89.5203 92.9257 89.6674 120.679 87.967 122.599C86.2667 124.519 79.33 127.045 75.6705 127.045C72.011 127.045 16.5354 122.599 16.5354 122.599C16.5354 122.599 12.2169 119.569 13.7642 114.222C15.3116 108.875 26.3355 84.2652 26.3355 84.2652L51.3069 71.1143Z" fill="#A6BBFC"/>
<path d="M69.3744 95.9702C69.3744 95.9702 63.9792 114.468 66.415 118.122C66.415 118.122 52.7946 116.127 48.9762 118.122L47.9231 125.653" stroke="#7790DE" stroke-width="1.91684" stroke-miterlimit="10"/>
<path d="M50.5349 40.1963C50.5349 40.1963 45.5515 49.0569 47.8226 49.8335C47.8226 49.8335 48.8169 50.2218 49.4288 49.8335" stroke="#7790DE" stroke-width="1.91684" stroke-miterlimit="10" stroke-linecap="round"/>
<path d="M48.8826 56.7139C48.8826 56.7139 52.9488 56.4617 54.6955 54.2781" stroke="#7790DE" stroke-width="1.91684" stroke-miterlimit="10" stroke-linecap="round"/>
<path d="M69.4204 44.5737C69.4204 44.5737 74.6273 42.9146 73.8507 50.1101C73.8507 50.1101 73.1859 53.7638 69.4204 53.5461" stroke="#7790DE" stroke-width="1.91684" stroke-miterlimit="10" stroke-linecap="round"/>
<rect x="43.0854" y="40.3606" width="2.02202" height="2.89749" rx="1.01101" fill="#7790DE"/>
<rect x="55.5574" y="40.3606" width="2.02202" height="2.89749" rx="1.01101" fill="#7790DE"/>
<path d="M36.1078 93.7651C36.1078 93.7651 26.3104 119.245 29.4883 123.123" stroke="#7790DE" stroke-width="2" stroke-miterlimit="10"/>
</g>
</svg>
