<svg width="20" height="22" viewBox="0 0 20 22" fill="none" xmlns="http://www.w3.org/2000/svg">
<path d="M17.7169 10.9394C17.7137 13.1658 17.5414 15.314 18.9978 16.9666H4.71094C6.16765 15.3141 5.99572 13.1659 5.99278 10.9394V10.1887C5.99278 8.59608 6.61039 7.06865 7.70974 5.94246C8.80909 4.81628 10.3001 4.18359 11.8548 4.18359C13.4096 4.18359 14.9006 4.81628 16 5.94246C17.0993 7.06865 17.7169 8.59608 17.7169 10.1887V10.2388V10.9394Z" fill="#D4EFFF"/>
<path d="M17.3843 10.0165C17.3802 12.8216 17.1632 15.528 18.998 17.6102H0.998047C2.83336 15.5282 2.61675 12.8217 2.61304 10.0165V9.07078C2.61304 7.06418 3.39116 5.13976 4.77624 3.72088C6.16131 2.302 8.03987 1.50488 9.99866 1.50488C11.9575 1.50488 13.836 2.302 15.2211 3.72088C16.6062 5.13976 17.3843 7.06418 17.3843 9.07078V9.13383V10.0165Z" stroke="#161616" stroke-width="1.5" stroke-linecap="round" stroke-linejoin="round"/>
<path d="M13.3161 17.6094C13.3161 19.4406 11.8316 20.9252 10.0004 20.9252C8.1691 20.9252 6.68457 19.4406 6.68457 17.6094" stroke="#161616" stroke-width="1.5"/>
</svg>
