<svg width="21" height="21" viewBox="0 0 21 21" fill="none" xmlns="http://www.w3.org/2000/svg">
<mask id="path-1-inside-1_1380_3289" fill="white">
<path fill-rule="evenodd" clip-rule="evenodd" d="M1.39681 4.5H6.73109C7.09174 4.5 7.42875 4.67948 7.63003 4.97875L9.2505 7.38818H19.0481C19.6464 7.38818 20.1314 7.87321 20.1314 8.47152V19.4493C20.1314 20.0476 19.6464 20.5326 19.0481 20.5326H1.39681C0.798502 20.5326 0.313477 20.0476 0.313477 19.4493V8.61667V8.47152V5.58333C0.313477 4.98503 0.798501 4.5 1.39681 4.5Z"/>
</mask>
<path d="M7.63003 4.97875L8.97843 4.07187L8.97843 4.07187L7.63003 4.97875ZM9.2505 7.38818L7.90209 8.29506L8.38507 9.01318H9.2505V7.38818ZM6.73109 2.875H1.39681V6.125H6.73109V2.875ZM8.97843 4.07187C8.47525 3.3237 7.63273 2.875 6.73109 2.875V6.125C6.55076 6.125 6.38226 6.03526 6.28162 5.88563L8.97843 4.07187ZM10.5989 6.48131L8.97843 4.07187L6.28162 5.88563L7.90209 8.29506L10.5989 6.48131ZM9.2505 9.01318H19.0481V5.76318H9.2505V9.01318ZM19.0481 9.01318C18.7489 9.01318 18.5064 8.77067 18.5064 8.47152H21.7564C21.7564 6.97574 20.5438 5.76318 19.0481 5.76318V9.01318ZM18.5064 8.47152V19.4493H21.7564V8.47152H18.5064ZM18.5064 19.4493C18.5064 19.1501 18.7489 18.9076 19.0481 18.9076V22.1576C20.5438 22.1576 21.7564 20.9451 21.7564 19.4493H18.5064ZM19.0481 18.9076H1.39681V22.1576H19.0481V18.9076ZM1.39681 18.9076C1.69596 18.9076 1.93848 19.1501 1.93848 19.4493H-1.31152C-1.31152 20.9451 -0.0989611 22.1576 1.39681 22.1576V18.9076ZM1.93848 19.4493V8.61667H-1.31152V19.4493H1.93848ZM1.93848 8.61667V8.47152H-1.31152V8.61667H1.93848ZM-1.31152 5.58333V8.47152H1.93848V5.58333H-1.31152ZM1.39681 2.875C-0.0989633 2.875 -1.31152 4.08756 -1.31152 5.58333H1.93848C1.93848 5.88249 1.69597 6.125 1.39681 6.125V2.875Z" fill="#70747E" mask="url(#path-1-inside-1_1380_3289)"/>
<path d="M17.798 8.25556V2.33333C17.798 1.73502 17.3129 1.25 16.7146 1.25H3.7264C3.12809 1.25 2.64307 1.73503 2.64307 2.33333V5.94444" stroke="#70747E" stroke-width="1.625"/>
</svg>
