<svg width="25" height="24" viewBox="0 0 25 24" fill="none" xmlns="http://www.w3.org/2000/svg">
<path d="M16.1902 13.5362C16.1873 15.5506 16.0314 17.4941 17.349 18.9894H4.42285C5.74083 17.4943 5.58528 15.5507 5.58261 13.5362V12.8571C5.58261 11.4161 6.1414 10.0341 7.13605 9.01519C8.1307 7.99626 9.47974 7.42383 10.8864 7.42383C12.293 7.42383 13.6421 7.99626 14.6367 9.01519C15.6314 10.0341 16.1902 11.4161 16.1902 12.8571V12.9023V13.5362Z" fill="#D6FF5D"/>
<path d="M15.8891 12.701C15.8855 15.2389 15.6891 17.6876 17.3492 19.5714H1.06348C2.724 17.6878 2.52802 15.2391 2.52466 12.701V11.8453C2.52466 10.0298 3.22868 8.2887 4.48184 7.00495C5.735 5.7212 7.43465 5 9.20689 5C10.9791 5 12.6788 5.7212 13.9319 7.00495C15.1851 8.2887 15.8891 10.0298 15.8891 11.8453V11.9024V12.701Z" stroke="#161616" stroke-width="1.5" stroke-linecap="round" stroke-linejoin="round"/>
<path d="M12.208 19.5703C12.208 21.2272 10.8649 22.5703 9.20801 22.5703C7.55115 22.5703 6.20801 21.2272 6.20801 19.5703" stroke="#161616" stroke-width="1.5"/>
<circle cx="20.0635" cy="5" r="3" fill="#356DF8"/>
</svg>
