<svg width="82" height="68" viewBox="0 0 82 68" fill="none" xmlns="http://www.w3.org/2000/svg">
<path d="M1.05904 41.2769C0.474148 41.2769 0 41.7511 0 42.336V65.6116C0 66.1965 0.474149 66.6706 1.05904 66.6706H4.76323C5.34812 66.6706 5.82227 66.1965 5.82227 65.6116V50.9423C5.82227 50.8731 5.8783 50.8171 5.94742 50.8171C5.99887 50.8171 6.04509 50.8486 6.0639 50.8965L11.9418 65.8585C12.101 66.2638 12.4921 66.5303 12.9275 66.5303H15.2731C15.7079 66.5303 16.0986 66.2645 16.2582 65.86L22.1354 50.9665C22.1543 50.9187 22.2005 50.8873 22.2519 50.8873C22.3211 50.8873 22.3772 50.9433 22.3772 51.0125V65.6116C22.3772 66.1965 22.8513 66.6706 23.4362 66.6706H27.1404C27.7253 66.6706 28.1994 66.1965 28.1994 65.6116V42.336C28.1994 41.7511 27.7253 41.2769 27.1404 41.2769H21.5092C21.0795 41.2769 20.6924 41.5366 20.5293 41.9342L14.2932 57.141C14.261 57.2195 14.1846 57.2708 14.0997 57.2708C14.0148 57.2708 13.9384 57.2195 13.9062 57.141L7.67011 41.9342C7.50707 41.5366 7.11996 41.2769 6.69026 41.2769H1.05904Z" fill="#356DF8"/>
<path d="M30.6069 61.3744C30.5894 65.1449 33.2374 67.0039 36.8851 67.0214C39.5293 67.004 41.3625 65.9512 42.4017 64.0514C42.4172 64.023 42.447 64.005 42.4793 64.005C42.5278 64.005 42.5671 64.0443 42.5671 64.0928V65.6116C42.5671 66.1965 43.0413 66.6706 43.6261 66.6706H47.0848C47.6697 66.6706 48.1439 66.1965 48.1439 65.6116V53.7283C48.1263 49.6071 44.4611 47.3799 39.7612 47.3799C35.0236 47.3799 32.2534 49.5537 31.4994 52.3902C31.3408 52.9869 31.836 53.5178 32.4534 53.5178H35.9322C36.4436 53.5178 36.8541 53.1305 37.125 52.6968C37.579 51.9698 38.4459 51.5755 39.6209 51.5888C41.2343 51.5712 42.2164 52.3253 42.2164 53.6581V54.1874C42.2164 54.7544 41.77 55.2199 41.2035 55.243C40.1384 55.2865 38.6468 55.3492 37.6568 55.4118C33.8688 55.6398 30.5894 57.148 30.6069 61.3744ZM36.2187 61.1289C36.2012 59.8663 37.1482 59.042 38.6388 58.8842C39.229 58.8263 40.3003 58.7608 41.1673 58.7179C41.7616 58.6885 42.2514 59.1639 42.2514 59.7589V59.9013C42.269 61.7778 40.6906 63.0931 38.6739 63.0931C37.2359 63.0931 36.2012 62.4091 36.2187 61.1289Z" fill="#356DF8"/>
<path d="M61.8451 48.6844C61.8451 48.0995 61.371 47.6254 60.7861 47.6254H59.4319C58.847 47.6254 58.3728 47.1512 58.3728 46.5663V44.1248C58.3728 43.5399 57.8987 43.0657 57.3138 43.0657H53.5394C52.9545 43.0657 52.4804 43.5399 52.4804 44.1248V46.5663C52.4804 47.1512 52.0062 47.6254 51.4214 47.6254H50.979C50.3941 47.6254 49.92 48.0995 49.92 48.6844V50.9155C49.92 51.5004 50.3941 51.9746 50.979 51.9746H51.4214C52.0062 51.9746 52.4804 52.4487 52.4804 53.0336V61.3744C52.4453 65.2151 54.9531 66.9337 59.1444 66.9512C59.9675 66.9408 60.6482 66.8994 61.1866 66.8492C61.708 66.8005 62.0906 66.3537 62.0906 65.8301V63.3622C62.0906 62.7444 61.5641 62.2611 60.9468 62.2852C60.575 62.2997 60.2262 62.3035 59.9862 62.2864C58.9866 62.2688 58.3904 61.9006 58.3728 60.708V53.0336C58.3728 52.4487 58.847 51.9746 59.4319 51.9746H60.7861C61.371 51.9746 61.8451 51.5004 61.8451 50.9155V48.6844Z" fill="#356DF8"/>
<path d="M73.0211 67.0214C77.3796 67.0214 80.4348 65.1556 81.5801 62.1522C81.8173 61.5303 81.3119 60.9185 80.6464 60.9185H77.1259C76.7001 60.9185 76.3305 61.1872 76.0672 61.5218C75.4653 62.2865 74.4269 62.7423 73.1263 62.7423C70.7237 62.7423 69.2506 61.1465 69.2331 58.7088C69.2331 58.6507 69.2802 58.6036 69.3383 58.6036H80.941C81.5259 58.6036 82 58.1294 82 57.5445V57.0954C82 50.782 78.1594 47.3799 72.8106 47.3799C67.0936 47.3799 63.4108 51.3257 63.4108 57.2357C63.4108 63.3035 67.0585 67.0214 73.0211 67.0214ZM70.3405 55.1312C69.737 55.1312 69.2405 54.6165 69.4417 54.0476C69.9398 52.6388 71.2688 51.6589 72.9509 51.6589C74.609 51.6589 75.8943 52.6143 76.332 54.0692C76.5025 54.6361 76.008 55.1312 75.4159 55.1312H70.3405Z" fill="#356DF8"/>
<path d="M1.49646 25.9482C1.49646 26.5331 1.97061 27.0073 2.5555 27.0073H6.39999C6.98488 27.0073 7.45903 26.5331 7.45903 25.9482V17.7896C7.45903 17.2047 7.93317 16.7306 8.51807 16.7306H16.5363C17.1212 16.7306 17.5954 16.2564 17.5954 15.6715V12.9143C17.5954 12.3294 17.1212 11.8552 16.5363 11.8552H8.51807C7.93318 11.8552 7.45903 11.3811 7.45903 10.7962V7.54795C7.45903 6.96305 7.93317 6.4889 8.51807 6.4889H17.6587C18.2436 6.4889 18.7178 6.01475 18.7178 5.42985V2.67264C18.7178 2.08774 18.2436 1.61359 17.6587 1.61359H2.5555C1.97061 1.61359 1.49646 2.08774 1.49646 2.67264V25.9482Z" fill="#356DF8"/>
<path d="M21.2305 25.9482C21.2305 26.5331 21.7046 27.0073 22.2895 27.0073H26.0989C26.6838 27.0073 27.1579 26.5331 27.1579 25.9482V9.02106C27.1579 8.43617 26.6838 7.96202 26.0989 7.96202H22.2895C21.7046 7.96202 21.2305 8.43617 21.2305 9.02106V25.9482ZM21.1603 2.84119C21.1603 4.41952 22.5282 5.68219 24.2117 5.68219C25.9128 5.68219 27.2807 4.41952 27.2982 2.84119C27.2807 1.26285 25.9128 -0.017359 24.2117 0.00017805C22.5282 -0.017359 21.1603 1.26285 21.1603 2.84119Z" fill="#356DF8"/>
<path d="M39.2809 27.358C43.6394 27.358 46.6946 25.4923 47.84 22.4888C48.0771 21.8669 47.5717 21.2551 46.9062 21.2551H43.3857C42.9599 21.2551 42.5904 21.5239 42.327 21.8585C41.7252 22.6232 40.6867 23.079 39.3861 23.079C36.9835 23.079 35.5104 21.4831 35.4929 19.0455C35.4929 18.9873 35.54 18.9402 35.5981 18.9402H47.2008C47.7857 18.9402 48.2598 18.4661 48.2598 17.8812V17.432C48.2598 11.1187 44.4192 7.7165 39.0704 7.7165C33.3534 7.7165 29.6706 11.6623 29.6706 17.5723C29.6706 23.6402 33.3183 27.358 39.2809 27.358ZM36.6003 15.4679C35.9969 15.4679 35.5004 14.9532 35.7015 14.3842C36.1996 12.9755 37.5286 11.9955 39.2107 11.9955C40.8689 11.9955 42.1541 12.9509 42.5918 14.4058C42.7623 14.9728 42.2678 15.4679 41.6757 15.4679H36.6003Z" fill="#356DF8"/>
<path d="M56.7 2.67264C56.7 2.08774 56.2258 1.61359 55.641 1.61359H51.8315C51.2467 1.61359 50.7725 2.08774 50.7725 2.67264V25.9482C50.7725 26.5331 51.2467 27.0073 51.8315 27.0073H55.641C56.2258 27.0073 56.7 26.5331 56.7 25.9482V2.67264Z" fill="#356DF8"/>
<path d="M66.929 27.2879C69.805 27.2879 71.4828 25.6961 72.2669 23.9836C72.2844 23.9454 72.3223 23.9208 72.3643 23.9208C72.423 23.9208 72.4706 23.9684 72.4706 24.0271V25.9482C72.4706 26.5331 72.9448 27.0073 73.5297 27.0073H77.2689C77.8538 27.0073 78.328 26.5331 78.328 25.9482V2.67264C78.328 2.08774 77.8538 1.61359 77.2689 1.61359H73.4946C72.9097 1.61359 72.4356 2.08774 72.4356 2.67264V11.1397C72.4356 11.1862 72.3978 11.2239 72.3513 11.2239C72.3174 11.2239 72.2869 11.2037 72.2735 11.1725C71.5436 9.46981 69.9149 7.7165 66.8939 7.7165C62.8779 7.7165 59.2828 10.8206 59.2828 17.5022C59.2828 23.9558 62.685 27.2879 66.929 27.2879ZM65.3506 17.4671C65.3506 14.3631 66.6133 12.3463 68.9282 12.3463C71.2255 12.3463 72.5583 14.3104 72.5408 17.4671C72.5583 20.6238 71.2255 22.6581 68.9282 22.6581C66.6308 22.6581 65.3506 20.6063 65.3506 17.4671Z" fill="#356DF8"/>
<path d="M1.05904 41.2769C0.474148 41.2769 0 41.7511 0 42.336V65.6116C0 66.1965 0.474149 66.6706 1.05904 66.6706H4.76323C5.34812 66.6706 5.82227 66.1965 5.82227 65.6116V50.9423C5.82227 50.8731 5.8783 50.8171 5.94742 50.8171C5.99887 50.8171 6.04509 50.8486 6.0639 50.8965L11.9418 65.8585C12.101 66.2638 12.4921 66.5303 12.9275 66.5303H15.2731C15.7079 66.5303 16.0986 66.2645 16.2582 65.86L22.1354 50.9665C22.1543 50.9187 22.2005 50.8873 22.2519 50.8873C22.3211 50.8873 22.3772 50.9433 22.3772 51.0125V65.6116C22.3772 66.1965 22.8513 66.6706 23.4362 66.6706H27.1404C27.7253 66.6706 28.1994 66.1965 28.1994 65.6116V42.336C28.1994 41.7511 27.7253 41.2769 27.1404 41.2769H21.5092C21.0795 41.2769 20.6924 41.5366 20.5293 41.9342L14.2932 57.141C14.261 57.2195 14.1846 57.2708 14.0997 57.2708C14.0148 57.2708 13.9384 57.2195 13.9062 57.141L7.67011 41.9342C7.50707 41.5366 7.11996 41.2769 6.69026 41.2769H1.05904Z" stroke="#356DF8"/>
<path d="M30.6069 61.3744C30.5894 65.1449 33.2374 67.0039 36.8851 67.0214C39.5293 67.004 41.3625 65.9512 42.4017 64.0514C42.4172 64.023 42.447 64.005 42.4793 64.005C42.5278 64.005 42.5671 64.0443 42.5671 64.0928V65.6116C42.5671 66.1965 43.0413 66.6706 43.6261 66.6706H47.0848C47.6697 66.6706 48.1439 66.1965 48.1439 65.6116V53.7283C48.1263 49.6071 44.4611 47.3799 39.7612 47.3799C35.0236 47.3799 32.2534 49.5537 31.4994 52.3902C31.3408 52.9869 31.836 53.5178 32.4534 53.5178H35.9322C36.4436 53.5178 36.8541 53.1305 37.125 52.6968C37.579 51.9698 38.4459 51.5755 39.6209 51.5888C41.2343 51.5712 42.2164 52.3253 42.2164 53.6581V54.1874C42.2164 54.7544 41.77 55.2199 41.2035 55.243C40.1384 55.2865 38.6468 55.3492 37.6568 55.4118C33.8688 55.6398 30.5894 57.148 30.6069 61.3744ZM36.2187 61.1289C36.2012 59.8663 37.1482 59.042 38.6388 58.8842C39.229 58.8263 40.3003 58.7608 41.1673 58.7179C41.7616 58.6885 42.2514 59.1639 42.2514 59.7589V59.9013C42.269 61.7778 40.6906 63.0931 38.6739 63.0931C37.2359 63.0931 36.2012 62.4091 36.2187 61.1289Z" stroke="#356DF8"/>
<path d="M61.8451 48.6844C61.8451 48.0995 61.371 47.6254 60.7861 47.6254H59.4319C58.847 47.6254 58.3728 47.1512 58.3728 46.5663V44.1248C58.3728 43.5399 57.8987 43.0657 57.3138 43.0657H53.5394C52.9545 43.0657 52.4804 43.5399 52.4804 44.1248V46.5663C52.4804 47.1512 52.0062 47.6254 51.4214 47.6254H50.979C50.3941 47.6254 49.92 48.0995 49.92 48.6844V50.9155C49.92 51.5004 50.3941 51.9746 50.979 51.9746H51.4214C52.0062 51.9746 52.4804 52.4487 52.4804 53.0336V61.3744C52.4453 65.2151 54.9531 66.9337 59.1444 66.9512C59.9675 66.9408 60.6482 66.8994 61.1866 66.8492C61.708 66.8005 62.0906 66.3537 62.0906 65.8301V63.3622C62.0906 62.7444 61.5641 62.2611 60.9468 62.2852C60.575 62.2997 60.2262 62.3035 59.9862 62.2864C58.9866 62.2688 58.3904 61.9006 58.3728 60.708V53.0336C58.3728 52.4487 58.847 51.9746 59.4319 51.9746H60.7861C61.371 51.9746 61.8451 51.5004 61.8451 50.9155V48.6844Z" stroke="#356DF8"/>
<path d="M73.0211 67.0214C77.3796 67.0214 80.4348 65.1556 81.5801 62.1522C81.8173 61.5303 81.3119 60.9185 80.6464 60.9185H77.1259C76.7001 60.9185 76.3305 61.1872 76.0672 61.5218C75.4653 62.2865 74.4269 62.7423 73.1263 62.7423C70.7237 62.7423 69.2506 61.1465 69.2331 58.7088C69.2331 58.6507 69.2802 58.6036 69.3383 58.6036H80.941C81.5259 58.6036 82 58.1294 82 57.5445V57.0954C82 50.782 78.1594 47.3799 72.8106 47.3799C67.0936 47.3799 63.4108 51.3257 63.4108 57.2357C63.4108 63.3035 67.0585 67.0214 73.0211 67.0214ZM70.3405 55.1312C69.737 55.1312 69.2405 54.6165 69.4417 54.0476C69.9398 52.6388 71.2688 51.6589 72.9509 51.6589C74.609 51.6589 75.8943 52.6143 76.332 54.0692C76.5025 54.6361 76.008 55.1312 75.4159 55.1312H70.3405Z" stroke="#356DF8"/>
<path d="M1.49646 25.9482C1.49646 26.5331 1.97061 27.0073 2.5555 27.0073H6.39999C6.98488 27.0073 7.45903 26.5331 7.45903 25.9482V17.7896C7.45903 17.2047 7.93317 16.7306 8.51807 16.7306H16.5363C17.1212 16.7306 17.5954 16.2564 17.5954 15.6715V12.9143C17.5954 12.3294 17.1212 11.8552 16.5363 11.8552H8.51807C7.93318 11.8552 7.45903 11.3811 7.45903 10.7962V7.54795C7.45903 6.96305 7.93317 6.4889 8.51807 6.4889H17.6587C18.2436 6.4889 18.7178 6.01475 18.7178 5.42985V2.67264C18.7178 2.08774 18.2436 1.61359 17.6587 1.61359H2.5555C1.97061 1.61359 1.49646 2.08774 1.49646 2.67264V25.9482Z" stroke="#356DF8"/>
<path d="M21.2305 25.9482C21.2305 26.5331 21.7046 27.0073 22.2895 27.0073H26.0989C26.6838 27.0073 27.1579 26.5331 27.1579 25.9482V9.02106C27.1579 8.43617 26.6838 7.96202 26.0989 7.96202H22.2895C21.7046 7.96202 21.2305 8.43617 21.2305 9.02106V25.9482ZM21.1603 2.84119C21.1603 4.41952 22.5282 5.68219 24.2117 5.68219C25.9128 5.68219 27.2807 4.41952 27.2982 2.84119C27.2807 1.26285 25.9128 -0.017359 24.2117 0.00017805C22.5282 -0.017359 21.1603 1.26285 21.1603 2.84119Z" stroke="#356DF8"/>
<path d="M39.2809 27.358C43.6394 27.358 46.6946 25.4923 47.84 22.4888C48.0771 21.8669 47.5717 21.2551 46.9062 21.2551H43.3857C42.9599 21.2551 42.5904 21.5239 42.327 21.8585C41.7252 22.6232 40.6867 23.079 39.3861 23.079C36.9835 23.079 35.5104 21.4831 35.4929 19.0455C35.4929 18.9873 35.54 18.9402 35.5981 18.9402H47.2008C47.7857 18.9402 48.2598 18.4661 48.2598 17.8812V17.432C48.2598 11.1187 44.4192 7.7165 39.0704 7.7165C33.3534 7.7165 29.6706 11.6623 29.6706 17.5723C29.6706 23.6402 33.3183 27.358 39.2809 27.358ZM36.6003 15.4679C35.9969 15.4679 35.5004 14.9532 35.7015 14.3842C36.1996 12.9755 37.5286 11.9955 39.2107 11.9955C40.8689 11.9955 42.1541 12.9509 42.5918 14.4058C42.7623 14.9728 42.2678 15.4679 41.6757 15.4679H36.6003Z" stroke="#356DF8"/>
<path d="M56.7 2.67264C56.7 2.08774 56.2258 1.61359 55.641 1.61359H51.8315C51.2467 1.61359 50.7725 2.08774 50.7725 2.67264V25.9482C50.7725 26.5331 51.2467 27.0073 51.8315 27.0073H55.641C56.2258 27.0073 56.7 26.5331 56.7 25.9482V2.67264Z" stroke="#356DF8"/>
<path d="M66.929 27.2879C69.805 27.2879 71.4828 25.6961 72.2669 23.9836C72.2844 23.9454 72.3223 23.9208 72.3643 23.9208C72.423 23.9208 72.4706 23.9684 72.4706 24.0271V25.9482C72.4706 26.5331 72.9448 27.0073 73.5297 27.0073H77.2689C77.8538 27.0073 78.328 26.5331 78.328 25.9482V2.67264C78.328 2.08774 77.8538 1.61359 77.2689 1.61359H73.4946C72.9097 1.61359 72.4356 2.08774 72.4356 2.67264V11.1397C72.4356 11.1862 72.3978 11.2239 72.3513 11.2239C72.3174 11.2239 72.2869 11.2037 72.2735 11.1725C71.5436 9.46981 69.9149 7.7165 66.8939 7.7165C62.8779 7.7165 59.2828 10.8206 59.2828 17.5022C59.2828 23.9558 62.685 27.2879 66.929 27.2879ZM65.3506 17.4671C65.3506 14.3631 66.6133 12.3463 68.9282 12.3463C71.2255 12.3463 72.5583 14.3104 72.5408 17.4671C72.5583 20.6238 71.2255 22.6581 68.9282 22.6581C66.6308 22.6581 65.3506 20.6063 65.3506 17.4671Z" stroke="#356DF8"/>
</svg>
