<svg width="18" height="18" viewBox="0 0 18 18" fill="none" xmlns="http://www.w3.org/2000/svg">
<path d="M3.22222 9.33309C4.46667 11.822 6.6 13.8664 9.08889 15.1998L12.0222 11.8442C12.2889 11.5775 12.6444 11.4886 12.9111 11.6664C13.8889 12.022 14.9556 12.1998 16.1111 12.1998C16.6444 12.1998 17 12.5553 17 13.0886V16.1109C17 16.6442 16.6444 16.9998 16.1111 16.9998C7.75556 16.9998 1 10.2442 1 1.88864C1 1.35531 1.35556 0.999756 1.88889 0.999756H5C5.53333 0.999756 5.88889 1.35531 5.88889 1.88864C5.88889 2.95531 6.06667 4.02198 6.42222 5.08865C6.51111 5.35531 6.42222 5.71087 6.24444 5.97753L3.22222 9.33309Z" stroke="#333333" stroke-width="1.5"/>
</svg>
