<svg width="32" height="33" viewBox="0 0 32 33" fill="none" xmlns="http://www.w3.org/2000/svg">
<rect x="10.5454" y="18.3518" width="15.4545" height="9.09091" rx="1.81818" fill="#356DF8" fill-opacity="0.3"/>
<path d="M24.8889 13.8064H7.11111C6.49746 13.8064 6 14.276 6 14.8553V26.3938C6 26.9731 6.49746 27.4428 7.11111 27.4428H24.8889C25.5025 27.4428 26 26.9731 26 26.3938V14.8553C26 14.276 25.5025 13.8064 24.8889 13.8064Z" stroke="#333333" stroke-width="1.5" stroke-linejoin="round"/>
<path d="M22.3636 10.473C22.3636 7.79421 20.2926 5.62451 17.7355 5.62451H14.2645C11.7074 5.62451 9.63637 7.79421 9.63637 10.473V13.8063" stroke="#333333" stroke-width="1.5" stroke-linecap="round" stroke-linejoin="round"/>
<path d="M15.9978 19.2607C16.632 19.2607 17.1461 18.718 17.1461 18.0485C17.1461 17.3791 16.632 16.8364 15.9978 16.8364C15.3636 16.8364 14.8495 17.3791 14.8495 18.0485C14.8495 18.718 15.3636 19.2607 15.9978 19.2607Z" fill="#333333" stroke="#333333" stroke-width="1.5" stroke-linejoin="round"/>
<path d="M16 19.261V24.1095" stroke="#333333" stroke-width="1.5" stroke-linecap="round" stroke-linejoin="round"/>
</svg>
