<svg width="111" height="100" viewBox="0 0 111 100" fill="none" xmlns="http://www.w3.org/2000/svg">
<path d="M3.00182 25.2642H29.2379C29.8287 25.2642 30.323 25.4401 30.6452 25.6749C30.9683 25.9104 31.061 26.1512 31.061 26.3215V97.5873C31.061 97.7575 30.9683 97.9984 30.6452 98.2339C30.323 98.4687 29.8287 98.6446 29.2379 98.6446H3.00182C2.41109 98.6446 1.91678 98.4687 1.59453 98.2339C1.2714 97.9984 1.17871 97.7575 1.17871 97.5873V26.3215C1.17871 26.1512 1.2714 25.9104 1.59453 25.6749C1.91678 25.4401 2.41109 25.2642 3.00182 25.2642Z" fill="#A6BBFC" stroke="#7790DE" stroke-width="2"/>
<path d="M23.109 39.647H11.1491C10.1038 39.647 9.25635 40.306 9.25635 41.119V46.3352C9.25635 47.1482 10.1038 47.8073 11.1491 47.8073H23.109C24.1543 47.8073 25.0018 47.1482 25.0018 46.3352V41.119C25.0018 40.306 24.1543 39.647 23.109 39.647Z" fill="white"/>
<path d="M23.109 57.874H11.1491C10.1038 57.874 9.25635 58.5331 9.25635 59.3461V64.5623C9.25635 65.3753 10.1038 66.0344 11.1491 66.0344H23.109C24.1543 66.0344 25.0018 65.3753 25.0018 64.5623V59.3461C25.0018 58.5331 24.1543 57.874 23.109 57.874Z" fill="white"/>
<path d="M23.109 76.1016H11.1491C10.1038 76.1016 9.25635 76.7606 9.25635 77.5736V82.7898C9.25635 83.6028 10.1038 84.2619 11.1491 84.2619H23.109C24.1543 84.2619 25.0018 83.6028 25.0018 82.7898V77.5736C25.0018 76.7606 24.1543 76.1016 23.109 76.1016Z" fill="white"/>
<path d="M34.1302 26.935L45.7765 40.8943C46.0318 41.2072 46.189 41.5897 46.189 41.9895V96.0015C46.189 97.0098 45.2659 97.8268 44.1268 97.8268H20.9127C19.7736 97.8268 18.8506 97.0098 18.8506 96.0015V28.0128C18.8506 27.0045 19.7736 26.1875 20.9127 26.1875H32.4805C33.1286 26.1875 33.7571 26.4656 34.1499 26.935H34.1302Z" fill="#507AF8" fill-opacity="0.3"/>
<path d="M28.5566 3.04828C28.5566 2.43352 29.1061 1.96432 29.7133 2.06063L87.4818 11.2235C87.9676 11.3005 88.3252 11.7193 88.3252 12.2111V97.6445C88.3252 98.1968 87.8775 98.6445 87.3252 98.6445H29.5566C29.0044 98.6445 28.5566 98.1968 28.5566 97.6445V3.04828Z" fill="#A6BBFC" stroke="#7790DE" stroke-width="2"/>
<rect x="38.8374" y="20.3433" width="14.7026" height="13.8115" rx="2" fill="white"/>
<rect x="38.8374" y="45.3545" width="14.7026" height="13.8115" rx="2" fill="white"/>
<rect x="38.8374" y="72.3857" width="14.7026" height="13.8115" rx="2" fill="white"/>
<rect x="63.3418" y="20.3433" width="14.7026" height="13.8115" rx="2" fill="white"/>
<rect x="63.3418" y="45.3545" width="14.7026" height="13.8115" rx="2" fill="white"/>
<rect x="63.3418" y="72.3857" width="14.7026" height="13.8115" rx="2" fill="white"/>
<path d="M71.3655 43.7128L60.5349 54.7264C60.2975 54.9732 60.1514 55.275 60.1514 55.5904V98.2046C60.1514 99.0001 61.0098 99.6447 62.0691 99.6447H83.6572C84.7165 99.6447 85.5749 99.0001 85.5749 98.2046V44.5632C85.5749 43.7677 84.7165 43.123 83.6572 43.123H72.8997C72.297 43.123 71.7125 43.3425 71.3472 43.7128H71.3655Z" fill="#507AF8" fill-opacity="0.3"/>
<path d="M72.7502 44.123H108.397C108.981 44.123 109.454 44.5964 109.454 45.1804V97.5874C109.454 98.1713 108.981 98.6447 108.397 98.6447H72.7502C72.1663 98.6447 71.6929 98.1713 71.6929 97.5874V45.1804C71.6929 44.5964 72.1663 44.123 72.7502 44.123Z" fill="#A6BBFC" stroke="#7790DE" stroke-width="2"/>
<path d="M81.3342 74.6895H99.7712C100.613 74.6895 101.292 75.6106 101.292 76.7518V97.7055H79.813V76.7518C79.813 75.6106 80.4925 74.6895 81.3342 74.6895Z" fill="white"/>
<rect x="79.9932" y="63.2012" width="21.1187" height="6.36475" rx="1" fill="white"/>
</svg>
