<svg width="21" height="23" viewBox="0 0 21 23" fill="none" xmlns="http://www.w3.org/2000/svg">
<path d="M12.2925 17.5688C11.7825 16.5488 12.7175 15.2313 12.93 14.3813L8.77632 11.1938C7.28882 11.6188 4.18632 12.4688 3.67632 12.4688C3.16632 12.4688 3.46382 13.3188 3.67632 13.7438L4.95132 16.2938L3.67632 18.2063L1.45503 20.7563L0 28.6687H15.7832C15.7832 27.3937 12.93 18.8438 12.2925 17.5688Z" fill="#D4EFFF"/>
<circle cx="9.10547" cy="9.28125" r="6.375" fill="#D4EFFF"/>
<path fill-rule="evenodd" clip-rule="evenodd" d="M2.73579 9.23249C2.73579 4.87911 6.2649 1.35 10.6183 1.35C14.9717 1.35 18.5008 4.87911 18.5008 9.23249C18.5008 11.9736 17.1022 14.3883 14.9766 15.8016C14.908 15.8472 14.8505 15.9032 14.8047 15.966C14.7147 16.0174 14.6353 16.0902 14.5748 16.1828C14.3708 16.4949 14.4585 16.9132 14.7705 17.1171C16.5952 18.3098 19.13 20.7541 19.4601 24.0228C19.4976 24.3937 19.8286 24.664 20.1995 24.6265C20.5704 24.5891 20.8407 24.258 20.8033 23.8871C20.4608 20.4963 18.1572 17.965 16.2751 16.5295C18.4496 14.8414 19.8508 12.2007 19.8508 9.23249C19.8508 4.13353 15.7173 0 10.6183 0C5.51932 0 1.38579 4.13353 1.38579 9.23249C1.38579 12.0932 2.68727 14.6496 4.72819 16.3423C4.58476 16.4505 4.44359 16.5635 4.30496 16.6815C0.952946 19.5338 0.291521 22.4928 0.451587 24.0251C0.490319 24.3958 0.82229 24.665 1.19306 24.6263C1.56384 24.5876 1.83301 24.2556 1.79428 23.8848C1.68702 22.858 2.11589 20.3168 5.17983 17.7096C5.44241 17.4862 5.71654 17.2829 5.99973 17.0985C6.04561 17.0687 6.08664 17.0342 6.12264 16.9961C6.25129 16.9481 6.36654 16.8605 6.44838 16.7375C6.65478 16.427 6.57045 16.008 6.26001 15.8016C4.13437 14.3883 2.73579 11.9736 2.73579 9.23249Z" fill="black"/>
<circle cx="7.83027" cy="8.32502" r="0.95625" fill="#161616"/>
<circle cx="12.9318" cy="8.32527" r="0.95625" fill="#161616"/>
<path d="M8.46777 11.1937C9.10527 12.4687 11.6553 12.4687 12.2928 11.1937" stroke="#161616" stroke-width="1.35" stroke-linecap="round" stroke-linejoin="round"/>
</svg>
