<svg width="18" height="20" viewBox="0 0 18 20" fill="none" xmlns="http://www.w3.org/2000/svg">
<path d="M15.9187 9.9659C15.9158 11.9803 15.7599 13.9238 17.0776 15.4191H4.15137C5.46934 13.924 5.31379 11.9804 5.31113 9.9659V9.28675C5.31113 7.84577 5.86992 6.4638 6.86457 5.44487C7.85922 4.42594 9.20826 3.85352 10.6149 3.85352C12.0216 3.85352 13.3706 4.42594 14.3652 5.44487C15.3599 6.4638 15.9187 7.84577 15.9187 9.28675V9.33203V9.9659Z" fill="#D6FF5D"/>
<path d="M15.6176 9.13068C15.614 11.6686 15.4176 14.1173 17.0777 16.0011H0.791992C2.45251 14.1175 2.25653 11.6687 2.25317 9.13068V8.27502C2.25317 6.45952 2.95719 4.71839 4.21035 3.43464C5.46352 2.15089 7.16317 1.42969 8.93541 1.42969C10.7076 1.42969 12.4073 2.15089 13.6605 3.43464C14.9136 4.71839 15.6176 6.45952 15.6176 8.27502V8.33206V9.13068Z" stroke="#161616" stroke-width="1.5" stroke-linecap="round" stroke-linejoin="round"/>
<path d="M11.9365 16C11.9365 17.6569 10.5934 19 8.93652 19C7.27967 19 5.93652 17.6569 5.93652 16" stroke="#161616" stroke-width="1.5"/>
</svg>
