<svg width="21" height="21" viewBox="0 0 21 21" fill="none" xmlns="http://www.w3.org/2000/svg">
<path fill-rule="evenodd" clip-rule="evenodd" d="M1.39681 4.5H6.73109C7.09174 4.5 7.42875 4.67948 7.63003 4.97875L9.2505 7.38818H19.0481C19.6464 7.38818 20.1314 7.87321 20.1314 8.47152V19.4493C20.1314 20.0476 19.6464 20.5326 19.0481 20.5326H1.39681C0.798502 20.5326 0.313477 20.0476 0.313477 19.4493V8.61667V8.47152V5.58333C0.313477 4.98503 0.798501 4.5 1.39681 4.5Z" fill="#356DF8"/>
<path d="M17.798 8.25556V2.33333C17.798 1.73502 17.3129 1.25 16.7146 1.25H3.7264C3.12809 1.25 2.64307 1.73503 2.64307 2.33333V5.94444" stroke="#356DF8" stroke-width="1.625"/>
</svg>
