<svg width="20" height="20" viewBox="0 0 20 20" fill="none" xmlns="http://www.w3.org/2000/svg">
<path d="M4.29254 6.53906H18.9258V15.5554C18.9258 16.1691 18.4283 16.6666 17.8147 16.6666H4.29254V6.53906Z" fill="#356DF8" fill-opacity="0.3"/>
<path d="M18.3334 5.33301V14.6663C18.3334 15.1968 18.1307 15.7055 17.7701 16.0806C17.4094 16.4556 16.9203 16.6663 16.4103 16.6663H3.58976C3.07973 16.6663 2.59059 16.4556 2.22994 16.0806C1.8693 15.7055 1.66669 15.1968 1.66669 14.6663V5.33301M18.3334 5.33301C18.3334 4.80257 18.1307 4.29387 17.7701 3.91879C17.4094 3.54372 16.9203 3.33301 16.4103 3.33301H3.58976C3.07973 3.33301 2.59059 3.54372 2.22994 3.91879C1.8693 4.29387 1.66669 4.80257 1.66669 5.33301M18.3334 5.33301V5.54901C18.3334 5.89047 18.2494 6.22626 18.0893 6.52438C17.9292 6.82251 17.6984 7.07304 17.4188 7.25212L11.0086 11.3543C10.7053 11.5486 10.3562 11.6515 10 11.6515C9.64387 11.6515 9.29472 11.5486 8.99147 11.3543L2.58122 7.25301C2.30166 7.07393 2.07085 6.8234 1.91076 6.52527C1.75068 6.22715 1.66665 5.89136 1.66669 5.5499V5.33301" stroke="#333333" stroke-width="1.5" stroke-linecap="round" stroke-linejoin="round"/>
</svg>
