<svg width="24" height="32" viewBox="0 0 24 32" fill="none" xmlns="http://www.w3.org/2000/svg">
<path d="M13.9816 19.919C13.4149 18.7857 14.4538 17.3218 14.6899 16.3774L10.0747 12.8357C8.42193 13.3079 4.97471 14.2524 4.40804 14.2524C3.84137 14.2524 4.17193 15.1968 4.40804 15.669L5.82471 18.5024L4.40804 20.6274L1.93994 23.4607L0.323242 32.2522H17.8601C17.8601 30.8355 14.6899 21.3357 13.9816 19.919Z" fill="#D4EFFF"/>
<circle cx="10.4398" cy="10.7108" r="7.08333" fill="#D4EFFF"/>
<path fill-rule="evenodd" clip-rule="evenodd" d="M3.36507 10.6565C3.36507 5.81943 7.28631 1.89819 12.1234 1.89819C16.9605 1.89819 20.8817 5.81943 20.8817 10.6565C20.8817 13.7022 19.3277 16.3852 16.9659 17.9556C16.8897 18.0062 16.8258 18.0684 16.7749 18.1382C16.675 18.1953 16.5868 18.2762 16.5195 18.3791C16.2929 18.7258 16.3903 19.1906 16.737 19.4172C18.7644 20.7424 21.5809 23.4583 21.9476 27.0901C21.9893 27.5023 22.3571 27.8026 22.7692 27.761C23.1813 27.7194 23.4817 27.3516 23.44 26.9394C23.0596 23.1718 20.4999 20.3593 18.4088 18.7643C20.8249 16.8886 22.3817 13.9545 22.3817 10.6565C22.3817 4.991 17.7889 0.398193 12.1234 0.398193C6.45788 0.398193 1.86507 4.991 1.86507 10.6565C1.86507 13.835 3.31116 16.6755 5.57885 18.5563C5.41948 18.6765 5.26262 18.8021 5.1086 18.9332C1.38413 22.1024 0.649216 25.3902 0.827067 27.0927C0.870103 27.5047 1.23896 27.8038 1.65093 27.7607C2.0629 27.7177 2.36199 27.3488 2.31895 26.9369C2.19977 25.7959 2.6763 22.9724 6.08067 20.0756C6.37243 19.8273 6.67702 19.6014 6.99167 19.3965C7.04264 19.3634 7.08824 19.325 7.12824 19.2827C7.27119 19.2294 7.39924 19.1321 7.49017 18.9954C7.71951 18.6505 7.6258 18.1849 7.28087 17.9556C4.91905 16.3852 3.36507 13.7022 3.36507 10.6565Z" fill="black"/>
<circle cx="9.02344" cy="9.64819" r="1.0625" fill="#161616"/>
<circle cx="14.6904" cy="9.64819" r="1.0625" fill="#161616"/>
<path d="M9.73145 12.8357C10.4398 14.2524 13.2731 14.2524 13.9814 12.8357" stroke="#161616" stroke-width="1.5" stroke-linecap="round" stroke-linejoin="round"/>
</svg>
