<svg width="61" height="62" viewBox="0 0 61 62" fill="none" xmlns="http://www.w3.org/2000/svg">
<path d="M48.6803 12.9126L57.5598 12.7191L57.9152 13.041L57.8824 20.7679L57.5184 21.0899L48.513 20.8964H46.1564L45.8579 32.7435H50.6729L59.8698 32.55L60.2407 32.872V40.5988L59.8646 40.9208L50.5383 40.7273H45.6561L45.4663 61.137H35.5517L36.7058 40.7273H24.4381C23.8412 44.2688 23.0183 46.3289 21.9314 48.4541C18.3413 55.2785 13.4349 58.9484 7.33811 61.459C6.93787 61.5874 6.66701 61.7159 6.47207 61.7159C6.21329 61.7159 6.03042 61.5874 5.85273 61.3939L0.240723 55.3419C6.54798 53.0249 11.1352 50.1273 13.9714 44.8476C14.5718 43.6249 15.1014 42.4655 15.4879 40.7273H10.7315L1.44835 40.9208L1.04983 40.5338L1.82616 32.937L2.23675 32.55L11.4147 32.7435H16.6006C17.0233 28.8167 17.3269 24.8249 17.6271 20.8964H14.9065L5.94071 21.0899L5.556 20.7028L6.29955 13.1061L6.69462 12.7191L15.5534 12.9126H18.2343L19.1556 0.808546L19.5972 0.358154H27.1673L27.5469 0.808546L26.8137 12.9126H37.8375L38.324 0.936984L38.7502 0.486593H46.2633L46.6601 0.936984L46.3582 12.9126H48.682H48.6803ZM37.5115 20.8964H26.3289C26.0908 24.8231 25.7872 28.815 25.4249 32.7435H37.0302L37.5115 20.8964Z" fill="#8B8B8B"/>
</svg>
