<svg width="26" height="26" viewBox="0 0 26 26" fill="none" xmlns="http://www.w3.org/2000/svg">
<path d="M1 4L13 7V25H1V4Z" fill="#D4EFFF"/>
<path d="M17 15L22 16.4286V25H17V15Z" fill="#D4EFFF"/>
<path d="M0.75 2.45371C0.75 1.66202 1.47664 1.06974 2.25207 1.22939L15.2521 3.90586C15.8331 4.02548 16.25 4.53699 16.25 5.13018V24C16.25 24.6904 15.6904 25.25 15 25.25H2C1.30964 25.25 0.75 24.6904 0.75 24V2.45371Z" stroke="black" stroke-width="1.5"/>
<path d="M16 11L24.205 12.7181C24.6682 12.8151 25 13.2236 25 13.6969V24C25 24.5523 24.5523 25 24 25H16" stroke="black" stroke-width="1.5"/>
<path d="M12 26V20C12 19.4477 11.5523 19 11 19H7C6.44772 19 6 19.4477 6 20V26" stroke="black" stroke-width="1.5"/>
<line x1="6.75" y1="9.25" x2="10.25" y2="9.25" stroke="black" stroke-width="1.5" stroke-linecap="round"/>
<line x1="6.75" y1="14.25" x2="10.25" y2="14.25" stroke="black" stroke-width="1.5" stroke-linecap="round"/>
<line x1="19.75" y1="16.25" x2="21.25" y2="16.25" stroke="black" stroke-width="1.5" stroke-linecap="round"/>
<line x1="19.75" y1="20.25" x2="21.25" y2="20.25" stroke="black" stroke-width="1.5" stroke-linecap="round"/>
</svg>
