<svg width="25" height="24" viewBox="0 0 25 24" fill="none" xmlns="http://www.w3.org/2000/svg">
<path d="M18.1903 12.5362C18.1874 14.5506 18.0315 16.4941 19.3492 17.9894H6.42297C7.74095 16.4943 7.5854 14.5507 7.58273 12.5362V11.8571C7.58273 10.4161 8.14152 9.03411 9.13617 8.01519C10.1308 6.99626 11.4799 6.42383 12.8865 6.42383C14.2932 6.42383 15.6422 6.99626 16.6368 8.01519C17.6315 9.03411 18.1903 10.4161 18.1903 11.8571V11.9023V12.5362Z" fill="#D3D3D3"/>
<path d="M17.8891 11.701C17.8855 14.2389 17.6891 16.6876 19.3492 18.5714H3.06348C4.724 16.6878 4.52802 14.2391 4.52466 11.701V10.8453C4.52466 9.02984 5.22868 7.2887 6.48184 6.00495C7.735 4.7212 9.43465 4 11.2069 4C12.9791 4 14.6788 4.7212 15.9319 6.00495C17.1851 7.2887 17.8891 9.02984 17.8891 10.8453V10.9024V11.701Z" stroke="#161616" stroke-width="1.5" stroke-linecap="round" stroke-linejoin="round"/>
<path d="M14.208 18.5703C14.208 20.2272 12.8649 21.5703 11.208 21.5703C9.55115 21.5703 8.20801 20.2272 8.20801 18.5703" stroke="#161616" stroke-width="1.5"/>
<path d="M13.8135 10.4844L14.0635 10.7344H21.1729L21.4229 10.4844V8.64062L21.1729 8.39062H17.5718L21.2299 3.66873L21.2822 3.51562V2L21.0322 1.75H14.2041L13.9541 2V3.84375L14.2041 4.09375H17.7783L13.8689 8.93672L13.8135 9.09375V10.4844Z" fill="black" stroke="white" stroke-width="0.5" stroke-linejoin="bevel"/>
</svg>
