<svg width="32" height="33" viewBox="0 0 32 33" fill="none" xmlns="http://www.w3.org/2000/svg">
<rect x="8.28577" y="15.6765" width="19.7143" height="6.00007" rx="1.7143" fill="#356DF8" fill-opacity="0.3"/>
<path d="M4 11.3909H26.2857C27.2325 11.3909 28 12.1584 28 13.1052V19.9624C28 20.9092 27.2325 21.6767 26.2857 21.6767H5.7143C4.76752 21.6767 4 20.9092 4 19.9624V16.5338" stroke="#333333" stroke-width="1.28572" stroke-linecap="round"/>
<path d="M8.31921 15.248V18.2481" stroke="#333333" stroke-width="0.857148" stroke-linecap="round"/>
<path d="M9.61829 15.998L7.02021 17.4981" stroke="#333333" stroke-width="0.857148" stroke-linecap="round"/>
<path d="M9.63171 17.4668L6.99853 16.0293" stroke="#333333" stroke-width="0.857148" stroke-linecap="round"/>
<path d="M13.5238 15.248V18.2481" stroke="#333333" stroke-width="0.857148" stroke-linecap="round"/>
<path d="M14.8229 15.998L12.2248 17.4981" stroke="#333333" stroke-width="0.857148" stroke-linecap="round"/>
<path d="M14.8363 17.4668L12.2031 16.0293" stroke="#333333" stroke-width="0.857148" stroke-linecap="round"/>
<path d="M18.7284 15.248V18.2481" stroke="#333333" stroke-width="0.857148" stroke-linecap="round"/>
<path d="M20.0275 15.998L17.4294 17.4981" stroke="#333333" stroke-width="0.857148" stroke-linecap="round"/>
<path d="M20.0409 17.4668L17.4077 16.0293" stroke="#333333" stroke-width="0.857148" stroke-linecap="round"/>
<path d="M23.9331 15.248V18.2481" stroke="#333333" stroke-width="0.857148" stroke-linecap="round"/>
<path d="M25.2322 15.998L22.6341 17.4981" stroke="#333333" stroke-width="0.857148" stroke-linecap="round"/>
<path d="M25.2457 17.4668L22.6125 16.0293" stroke="#333333" stroke-width="0.857148" stroke-linecap="round"/>
</svg>
