<svg width="20" height="20" viewBox="0 0 20 20" fill="none" xmlns="http://www.w3.org/2000/svg">
<rect x="11.3499" y="13.2305" width="6.65039" height="4.44607" rx="1.11111" fill="#356DF8" fill-opacity="0.3"/>
<rect x="2.44684" y="2.11914" width="4.44227" height="6.93902" rx="1.11111" fill="#356DF8" fill-opacity="0.3"/>
<path d="M4.22198 10.3333C5.46642 12.8222 7.59976 14.8667 10.0886 16.2L13.022 12.8444C13.2886 12.5778 13.6442 12.4889 13.9109 12.6667C14.8886 13.0222 15.9553 13.2 17.1109 13.2C17.6442 13.2 17.9998 13.5556 17.9998 14.0889V17.1111C17.9998 17.6444 17.6442 18 17.1109 18C8.75531 18 1.99976 11.2444 1.99976 2.88889C1.99976 2.35556 2.35531 2 2.88864 2H5.99976C6.53309 2 6.88865 2.35556 6.88865 2.88889C6.88865 3.95556 7.06642 5.02222 7.42198 6.08889C7.51087 6.35556 7.42198 6.71111 7.2442 6.97778L4.22198 10.3333Z" stroke="#333333" stroke-width="1.5"/>
</svg>
