<svg width="24" height="24" viewBox="0 0 24 24" fill="none" xmlns="http://www.w3.org/2000/svg">
<path d="M14.9316 6.49902L19.037 9.33877L11.677 19.7224L8.22155 21.2039C7.79071 21.3886 7.316 21.0602 7.34435 20.5971L7.5717 16.8827L14.9316 6.49902Z" fill="#D4EFFF"/>
<path d="M14.0815 4.76901L17.8828 7.39841L9.41302 19.3478L5.3715 21.0805C5.36665 21.0826 5.36427 21.0829 5.36401 21.083L5.36319 21.083C5.36227 21.0829 5.35851 21.0821 5.35366 21.0788C5.34881 21.0754 5.34678 21.0722 5.34637 21.0714L5.34611 21.0706C5.34605 21.0703 5.34555 21.068 5.34587 21.0628L5.61178 16.7184L14.0815 4.76901Z" stroke="black" stroke-width="1.5"/>
<path d="M16.0032 2.05835C16.4025 1.49513 17.1863 1.35692 17.7541 1.74965L19.4993 2.95684C20.0671 3.34957 20.2037 4.12453 19.8045 4.68775L19.1913 5.55282L15.3901 2.92342L16.0032 2.05835Z" stroke="black" stroke-width="1.5"/>
</svg>
