<svg width="24" height="24" viewBox="0 0 24 24" fill="none" xmlns="http://www.w3.org/2000/svg">
<path d="M11.3738 3.04442C11.4549 2.44221 11.901 2 12.4274 2H14.909C15.4354 2 15.8889 2.44221 15.98 3.04442L16.1957 4.46771C16.2595 4.88325 16.5016 5.22991 16.8211 5.43435C16.8922 5.47879 16.9625 5.52657 17.0328 5.57546C17.3447 5.79323 17.7242 5.861 18.0627 5.71323L19.2233 5.20658C19.4611 5.10237 19.7239 5.09989 19.9648 5.19959C20.2057 5.29929 20.4092 5.4947 20.539 5.75101L21.8 8.2476C21.9295 8.50393 21.9769 8.8044 21.9337 9.09554C21.8906 9.38668 21.7597 9.64962 21.5644 9.83756L20.6121 10.7564C20.3339 11.0231 20.1986 11.4375 20.2088 11.8586C20.2111 11.953 20.2119 12.0475 20.2112 12.1419C20.2079 12.5619 20.3502 12.9753 20.6318 13.2419L21.6013 14.1619C22.0103 14.5508 22.1212 15.2219 21.8633 15.7507L20.6418 18.2473C20.5165 18.5036 20.3166 18.699 20.0775 18.7989C19.8384 18.8988 19.5757 18.8967 19.3362 18.7929L18.1672 18.2862C17.8263 18.1384 17.4488 18.2062 17.1386 18.424C17.0696 18.473 16.9998 18.5204 16.9292 18.5662C16.6141 18.7695 16.3777 19.1162 16.3209 19.5317L16.1289 20.9539C16.0478 21.5572 15.6016 21.9994 15.0752 21.9994H12.5926C12.0663 21.9994 11.6128 21.5572 11.5216 20.955L11.306 19.5317C11.2432 19.1162 11.001 18.7695 10.6816 18.5651C10.6102 18.5197 10.5397 18.4726 10.4699 18.424C10.157 18.2062 9.77841 18.1384 9.43893 18.2862L8.27841 18.7929C8.04071 18.8968 7.77815 18.8991 7.53742 18.7994C7.29669 18.6997 7.0934 18.5045 6.96369 18.2484L5.70164 15.7518C5.57217 15.4955 5.52479 15.195 5.56794 14.9039C5.61108 14.6128 5.74195 14.3498 5.93726 14.1619L6.89051 13.243C7.16775 12.9764 7.30308 12.5619 7.29288 12.1408C7.2906 12.0464 7.28981 11.9519 7.29052 11.8575C7.29373 11.4375 7.15153 11.0242 6.86985 10.7575L5.90133 9.83756C5.70313 9.64967 5.56805 9.38694 5.52007 9.09605C5.4721 8.80516 5.51434 8.50493 5.63929 8.24871L6.85984 5.75212C6.98517 5.49561 7.18532 5.29997 7.42461 5.20006C7.66391 5.10015 7.92681 5.10246 8.16646 5.20658L9.33445 5.71323C9.67639 5.861 10.0539 5.79323 10.3631 5.57546C10.4316 5.52657 10.502 5.47879 10.5725 5.43324C10.8885 5.22991 11.1249 4.88325 11.1808 4.46771L11.3738 3.04442Z" fill="#D4EFFF"/>
<mask id="path-2-outside-1_1142_2598" maskUnits="userSpaceOnUse" x="0" y="0" width="24" height="24" fill="black">
<rect fill="white" width="24" height="24"/>
<path fill-rule="evenodd" clip-rule="evenodd" d="M10.4122 2C9.77384 2 9.23201 2.44221 9.13256 3.04442L8.89601 4.46771C8.8275 4.88325 8.54023 5.22991 8.15658 5.43324C8.07108 5.47879 7.98558 5.52657 7.90243 5.57546C7.52703 5.79323 7.06914 5.861 6.65473 5.71323L5.23918 5.20658C4.94872 5.10246 4.6299 5.10015 4.33953 5.20006C4.04916 5.29997 3.80609 5.49561 3.65364 5.75212L2.16904 8.24871C2.01706 8.50493 1.9653 8.80516 2.02296 9.09605C2.08063 9.38694 2.24398 9.64967 2.48401 9.83756L3.65694 10.7575C3.99806 11.0242 4.16978 11.4375 4.16515 11.8575C4.16412 11.9519 4.16491 12.0464 4.16751 12.1408C4.17913 12.5619 4.01428 12.9764 3.67759 13.243L2.51995 14.1619C2.28276 14.3498 2.12358 14.6128 2.07074 14.9039C2.01791 15.195 2.07483 15.4955 2.23139 15.7518L3.75749 18.2484C3.91434 18.5045 4.16054 18.6997 4.4523 18.7994C4.74406 18.8991 5.06247 18.8968 5.35092 18.7929L6.75921 18.2862C7.17117 18.1384 7.63018 18.2062 8.0092 18.424C8.09375 18.4726 8.17927 18.5197 8.26571 18.5651C8.65274 18.7695 8.94578 19.1162 9.02119 19.5317L9.28024 20.955C9.3897 21.5572 9.93887 21.9994 10.5772 21.9994H13.5879C14.2263 21.9994 14.7681 21.5572 14.8675 20.9539L15.1029 19.5317C15.1726 19.1162 15.4599 18.7695 15.8424 18.5662C15.928 18.5204 16.0128 18.473 16.0965 18.424C16.4731 18.2062 16.931 18.1384 17.3442 18.2862L18.7609 18.7929C19.0512 18.8967 19.3698 18.8988 19.6599 18.7989C19.95 18.699 20.1929 18.5036 20.3453 18.2473L21.8311 15.7507C22.1447 15.2219 22.0114 14.5508 21.5161 14.1619L20.342 13.2419C20.0009 12.9753 19.8292 12.5619 19.8338 12.1419C19.8349 12.0475 19.8341 11.953 19.8314 11.8586C19.8198 11.4375 19.9847 11.0231 20.3225 10.7564L21.479 9.83756C21.7162 9.64962 21.8754 9.38668 21.9282 9.09554C21.981 8.8044 21.9241 8.50394 21.7676 8.2476L20.2426 5.75101C20.0857 5.4947 19.8393 5.29929 19.5473 5.19959C19.2553 5.09989 18.9366 5.10237 18.648 5.20658L17.2397 5.71323C16.8289 5.861 16.3688 5.79323 15.9909 5.57546C15.9058 5.52657 15.8207 5.47879 15.7344 5.43435C15.3474 5.22991 15.0543 4.88325 14.9777 4.46771L14.7187 3.04442C14.6092 2.44221 14.0601 2 13.4217 2H10.4122ZM14.1213 14.1214C14.6839 13.5587 15 12.7957 15 12C15 11.2044 14.6839 10.4413 14.1213 9.87871C13.5587 9.3161 12.7956 9.00003 12 9.00003C11.2044 9.00003 10.4413 9.3161 9.87868 9.87871C9.31607 10.4413 9 11.2044 9 12C9 12.7957 9.31607 13.5587 9.87868 14.1214C10.4413 14.684 11.2044 15 12 15C12.7956 15 13.5587 14.684 14.1213 14.1214Z"/>
</mask>
<path d="M9.13256 3.04442L10.6123 3.29034L10.6125 3.28883L9.13256 3.04442ZM8.89601 4.46771L7.41631 4.22179L7.41599 4.22371L8.89601 4.46771ZM8.15658 5.43324L7.45415 4.10787L7.4513 4.10939L8.15658 5.43324ZM7.90243 5.57546L8.65512 6.87296L8.66261 6.86856L7.90243 5.57546ZM6.65473 5.71323L6.14925 7.1255L6.15092 7.12609L6.65473 5.71323ZM5.23918 5.20658L4.73303 6.6186L4.7337 6.61884L5.23918 5.20658ZM4.33953 5.20006L4.82756 6.61845L4.82756 6.61845L4.33953 5.20006ZM3.65364 5.75212L4.94291 6.51878L4.9431 6.51848L3.65364 5.75212ZM2.16904 8.24871L0.879768 7.48205L0.878942 7.48344L2.16904 8.24871ZM2.02296 9.09605L3.49433 8.80437L3.49433 8.80437L2.02296 9.09605ZM2.48401 9.83756L3.40974 8.6573L3.4086 8.6564L2.48401 9.83756ZM3.65694 10.7575L2.7312 11.9378L2.73313 11.9393L3.65694 10.7575ZM4.16515 11.8575L2.66524 11.841L2.66524 11.8411L4.16515 11.8575ZM4.16751 12.1408L2.66807 12.1821L2.66808 12.1822L4.16751 12.1408ZM3.67759 13.243L2.74629 12.0671L2.74504 12.0681L3.67759 13.243ZM2.51995 14.1619L3.45151 15.3375L3.45249 15.3368L2.51995 14.1619ZM2.07074 14.9039L3.54664 15.1718L2.07074 14.9039ZM2.23139 15.7518L0.95128 16.5337L0.951561 16.5342L2.23139 15.7518ZM3.75749 18.2484L2.47765 19.0308L2.47839 19.032L3.75749 18.2484ZM4.4523 18.7994L4.93727 17.38L4.93727 17.38L4.4523 18.7994ZM5.35092 18.7929L4.84314 17.3814L4.84254 17.3816L5.35092 18.7929ZM6.75921 18.2862L6.25274 16.8743L6.25142 16.8748L6.75921 18.2862ZM8.0092 18.424L8.75691 17.1236L8.75648 17.1234L8.0092 18.424ZM8.26571 18.5651L8.96631 17.2388L8.96373 17.2374L8.26571 18.5651ZM9.02119 19.5317L7.5453 19.7996L7.54544 19.8003L9.02119 19.5317ZM9.28024 20.955L10.7561 20.6868L10.756 20.6864L9.28024 20.955ZM14.8675 20.9539L13.3877 20.709L13.3875 20.71L14.8675 20.9539ZM15.1029 19.5317L13.6236 19.2837L13.6231 19.2868L15.1029 19.5317ZM15.8424 18.5662L16.5465 19.8907L16.5497 19.8889L15.8424 18.5662ZM16.0965 18.424L15.3456 17.1255L15.3392 17.1292L16.0965 18.424ZM17.3442 18.2862L17.8493 16.8738L17.8493 16.8738L17.3442 18.2862ZM18.7609 18.7929L18.2558 20.2053L18.2558 20.2053L18.7609 18.7929ZM19.6599 18.7989L19.1716 17.3807L19.1716 17.3807L19.6599 18.7989ZM20.3453 18.2473L19.0563 17.4802L19.0561 17.4805L20.3453 18.2473ZM21.8311 15.7507L23.1201 16.5178L23.1213 16.5158L21.8311 15.7507ZM21.5161 14.1619L22.4424 12.982L22.4413 12.9812L21.5161 14.1619ZM20.342 13.2419L21.2672 12.0612L21.2658 12.0601L20.342 13.2419ZM19.8338 12.1419L18.3339 12.1248L18.3339 12.1254L19.8338 12.1419ZM19.8314 11.8586L18.332 11.9L18.332 11.9006L19.8314 11.8586ZM20.3225 10.7564L21.2518 11.9339L21.2556 11.9309L20.3225 10.7564ZM21.479 9.83756L20.5474 8.66189L20.5459 8.66313L21.479 9.83756ZM21.7676 8.2476L23.0477 7.46574L23.0476 7.46571L21.7676 8.2476ZM20.2426 5.75101L21.5227 4.96912L21.522 4.96789L20.2426 5.75101ZM19.5473 5.19959L20.032 3.78005L20.032 3.78005L19.5473 5.19959ZM18.648 5.20658L19.1558 6.61802L19.1575 6.61741L18.648 5.20658ZM17.2397 5.71323L17.7475 7.12469L17.7475 7.12467L17.2397 5.71323ZM15.9909 5.57546L16.7399 4.27585L16.7379 4.27468L15.9909 5.57546ZM15.7344 5.43435L15.0338 6.76068C15.0383 6.76306 15.0428 6.76543 15.0474 6.76776L15.7344 5.43435ZM14.9777 4.46771L13.502 4.7363L13.5026 4.73954L14.9777 4.46771ZM14.7187 3.04442L13.2429 3.31267L13.2429 3.31301L14.7187 3.04442ZM14.1213 14.1214L15.182 15.182L15.182 15.182L14.1213 14.1214ZM14.1213 9.87871L15.182 8.81805L15.182 8.81805L14.1213 9.87871ZM9.87868 9.87871L8.81802 8.81805L8.81802 8.81805L9.87868 9.87871ZM9.87868 14.1214L8.81802 15.182L8.81802 15.182L9.87868 14.1214ZM10.6125 3.28883C10.5843 3.45961 10.4574 3.5 10.4122 3.5V0.5C9.09023 0.5 7.87972 1.42481 7.65261 2.8L10.6125 3.28883ZM10.3757 4.71363L10.6123 3.29034L7.65286 2.79849L7.41631 4.22179L10.3757 4.71363ZM8.85902 6.7586C9.57328 6.38004 10.2172 5.6749 10.376 4.7117L7.41599 4.22371C7.42629 4.16124 7.45077 4.1215 7.46312 4.10572C7.47378 4.09209 7.47373 4.0975 7.45415 4.10788L8.85902 6.7586ZM8.66261 6.86856C8.7269 6.83077 8.79405 6.79322 8.86186 6.75709L7.4513 4.10939C7.3481 4.16437 7.24427 4.22237 7.14224 4.28235L8.66261 6.86856ZM6.15092 7.12609C7.03785 7.44236 7.95395 7.27969 8.65511 6.87294L7.14974 4.27797C7.14091 4.28309 7.13253 4.28676 7.12547 4.28915C7.11844 4.29154 7.11431 4.29213 7.11373 4.2922C7.11326 4.29226 7.11724 4.29172 7.12535 4.29256C7.13371 4.29342 7.14523 4.29563 7.15853 4.30037L6.15092 7.12609ZM4.7337 6.61884L6.14925 7.12549L7.1602 4.30097L5.74466 3.79431L4.7337 6.61884ZM4.82756 6.61845C4.79377 6.63008 4.76193 6.62896 4.73303 6.6186L5.74533 3.79455C5.13552 3.57596 4.46604 3.57023 3.8515 3.78167L4.82756 6.61845ZM4.9431 6.51848C4.90836 6.57693 4.86243 6.60645 4.82756 6.61845L3.8515 3.78167C3.23588 3.99349 2.70383 4.41429 2.36419 4.98576L4.9431 6.51848ZM3.45831 9.01538L4.94291 6.51878L2.36437 4.98545L0.879769 7.48205L3.45831 9.01538ZM3.49433 8.80437C3.50891 8.87792 3.4948 8.95387 3.45914 9.01399L0.878942 7.48344C0.539307 8.056 0.421683 8.73239 0.551596 9.38773L3.49433 8.80437ZM3.4086 8.6564C3.44284 8.68321 3.48003 8.73225 3.49433 8.80437L0.551596 9.38773C0.681224 10.0416 1.04513 10.6161 1.55942 11.0187L3.4086 8.6564ZM4.58267 9.57727L3.40974 8.6573L1.55828 11.0178L2.7312 11.9378L4.58267 9.57727ZM5.66506 11.8741C5.6742 11.0459 5.33436 10.1649 4.58074 9.57576L2.73313 11.9393C2.70073 11.914 2.68149 11.8849 2.67247 11.8648C2.66447 11.847 2.66526 11.8389 2.66524 11.841L5.66506 11.8741ZM5.66694 12.0996C5.66487 12.0243 5.66424 11.9491 5.66506 11.8739L2.66524 11.8411C2.664 11.9548 2.66495 12.0685 2.66807 12.1821L5.66694 12.0996ZM4.60889 14.4189C5.36579 13.8194 5.68975 12.9261 5.66693 12.0994L2.66808 12.1822C2.66817 12.1857 2.66691 12.1764 2.67602 12.1553C2.68623 12.1317 2.7083 12.0972 2.74629 12.0671L4.60889 14.4189ZM3.45249 15.3368L4.61014 14.4179L2.74504 12.0681L1.5874 12.987L3.45249 15.3368ZM3.54664 15.1718C3.53277 15.2482 3.49291 15.3047 3.45151 15.3375L1.58838 12.9862C1.0726 13.3949 0.714398 13.9773 0.594854 14.636L3.54664 15.1718ZM3.51151 14.97C3.54356 15.0225 3.5606 15.0948 3.54664 15.1718L0.594854 14.636C0.475219 15.2952 0.606102 15.9686 0.95128 16.5337L3.51151 14.97ZM5.03732 17.4661L3.51123 14.9695L0.951561 16.5342L2.47765 19.0308L5.03732 17.4661ZM4.93727 17.38C4.96657 17.39 5.00564 17.4144 5.03658 17.4649L2.47839 19.032C2.82304 19.5946 3.3545 20.0095 3.96732 20.2188L4.93727 17.38ZM4.84254 17.3816C4.87663 17.3694 4.90857 17.3702 4.93727 17.38L3.96732 20.2188C4.57954 20.428 5.24832 20.4242 5.85931 20.2041L4.84254 17.3816ZM6.25142 16.8748L4.84314 17.3814L5.85871 20.2043L7.26699 19.6977L6.25142 16.8748ZM8.75648 17.1234C8.05759 16.7218 7.14114 16.5556 6.25274 16.8743L7.26568 19.6981C7.2506 19.7035 7.23783 19.7059 7.22891 19.7069C7.22025 19.7078 7.21631 19.7072 7.21744 19.7073C7.21867 19.7074 7.2239 19.7082 7.23244 19.7111C7.24099 19.714 7.25114 19.7184 7.26191 19.7246L8.75648 17.1234ZM8.96373 17.2374C8.894 17.2007 8.82505 17.1628 8.75691 17.1236L7.26148 19.7243C7.36245 19.7824 7.46454 19.8386 7.5677 19.8928L8.96373 17.2374ZM10.4971 19.2639C10.3236 18.3081 9.67531 17.6133 8.96631 17.2388L7.56511 19.8914C7.58993 19.9045 7.59503 19.9138 7.58809 19.9051C7.5796 19.8945 7.55616 19.8594 7.5453 19.7996L10.4971 19.2639ZM10.756 20.6864L10.497 19.2631L7.54544 19.8003L7.80448 21.2236L10.756 20.6864ZM10.5772 20.4994C10.6064 20.4994 10.6401 20.5098 10.6712 20.5348C10.7028 20.5602 10.7423 20.6109 10.7561 20.6868L7.80442 21.2233C8.05163 22.5833 9.26014 23.4994 10.5772 23.4994V20.4994ZM13.5879 20.4994H10.5772V23.4994H13.5879V20.4994ZM13.3875 20.71C13.4154 20.5406 13.5419 20.4994 13.5879 20.4994V23.4994C14.9106 23.4994 16.1208 22.5739 16.3476 21.1979L13.3875 20.71ZM13.6231 19.2868L13.3877 20.709L16.3474 21.1989L16.5828 19.7767L13.6231 19.2868ZM15.1383 17.2417C14.4256 17.6206 13.7844 18.3244 13.6236 19.2837L16.5823 19.7798C16.5721 19.8406 16.5483 19.8789 16.5367 19.8937C16.5267 19.9065 16.5272 19.9009 16.5465 19.8907L15.1383 17.2417ZM15.3392 17.1292C15.2719 17.1685 15.2038 17.2066 15.135 17.2435L16.5497 19.8889C16.6522 19.8341 16.7536 19.7774 16.8538 19.7188L15.3392 17.1292ZM17.8493 16.8738C16.9617 16.5564 16.0457 16.7206 15.3456 17.1255L16.8475 19.7225C16.857 19.717 16.866 19.713 16.8735 19.7105C16.881 19.708 16.8854 19.7073 16.8861 19.7072C16.8866 19.7072 16.8825 19.7077 16.874 19.7069C16.8653 19.706 16.8532 19.7036 16.8392 19.6986L17.8493 16.8738ZM19.266 17.3805L17.8493 16.8738L16.8391 19.6986L18.2558 20.2053L19.266 17.3805ZM19.1716 17.3807C19.2053 17.369 19.2371 17.3701 19.266 17.3805L18.2558 20.2053C18.8653 20.4232 19.5342 20.4286 20.1483 20.2172L19.1716 17.3807ZM19.0561 17.4805C19.0908 17.4222 19.1367 17.3927 19.1716 17.3807L20.1482 20.2172C20.7633 20.0054 21.295 19.585 21.6345 19.0141L19.0561 17.4805ZM20.5421 14.9836L19.0563 17.4802L21.6343 19.0144L23.1201 16.5178L20.5421 14.9836ZM20.5898 15.3417C20.5555 15.3147 20.5193 15.2647 20.5056 15.1956C20.4917 15.1255 20.504 15.0478 20.5409 14.9856L23.1213 16.5158C23.8336 15.3146 23.5073 13.8181 22.4424 12.982L20.5898 15.3417ZM19.4168 14.4226L20.5909 15.3426L22.4413 12.9812L21.2672 12.0612L19.4168 14.4226ZM18.3339 12.1254C18.3247 12.9536 18.6646 13.8346 19.4182 14.4237L21.2658 12.0601C21.2982 12.0855 21.3174 12.1146 21.3265 12.1347C21.3345 12.1524 21.3337 12.1606 21.3337 12.1585L18.3339 12.1254ZM18.332 11.9006C18.3341 11.9754 18.3347 12.0501 18.3339 12.1248L21.3337 12.1591C21.335 12.0449 21.334 11.9307 21.3309 11.8166L18.332 11.9006ZM19.3932 9.57899C18.6335 10.1786 18.3092 11.0729 18.332 11.9L21.3309 11.8172C21.3308 11.8137 21.332 11.8234 21.3227 11.845C21.3122 11.8693 21.2898 11.9039 21.2518 11.9339L19.3932 9.57899ZM20.5459 8.66313L19.3894 9.58199L21.2556 11.9309L22.4121 11.012L20.5459 8.66313ZM20.4523 8.82769C20.4662 8.75127 20.506 8.6947 20.5474 8.6619L22.4106 11.0132C22.9263 10.6045 23.2845 10.0221 23.4041 9.36339L20.4523 8.82769ZM20.4874 9.02947C20.4554 8.97698 20.4384 8.9046 20.4523 8.82769L23.4041 9.36339C23.5237 8.7042 23.3928 8.03089 23.0477 7.46574L20.4874 9.02947ZM18.9625 6.5329L20.4875 9.02949L23.0476 7.46571L21.5227 4.96912L18.9625 6.5329ZM19.0626 6.61913C19.0333 6.60913 18.9942 6.58471 18.9633 6.53412L21.522 4.96789C21.1772 4.40469 20.6453 3.98946 20.032 3.78005L19.0626 6.61913ZM19.1575 6.61741C19.1234 6.62974 19.0914 6.62894 19.0627 6.61913L20.032 3.78005C19.4192 3.57084 18.7499 3.575 18.1386 3.79574L19.1575 6.61741ZM17.7475 7.12467L19.1558 6.61801L18.1402 3.79514L16.7319 4.30179L17.7475 7.12467ZM15.2419 6.87507C15.9408 7.27787 16.8597 7.44405 17.7475 7.12469L16.732 4.30177C16.7652 4.28982 16.7846 4.29246 16.7821 4.29216C16.7808 4.292 16.7757 4.29122 16.7675 4.28844C16.7592 4.28565 16.7497 4.28149 16.7399 4.27585L15.2419 6.87507ZM15.0474 6.76776C15.1034 6.79666 15.1656 6.83124 15.2439 6.87624L16.7379 4.27468C16.646 4.2219 16.5379 4.16093 16.4214 4.10094L15.0474 6.76776ZM13.5026 4.73954C13.6781 5.69194 14.3243 6.3859 15.0338 6.76068L16.435 4.10802C16.4102 4.09494 16.4048 4.08551 16.4114 4.09367C16.4194 4.10371 16.4422 4.13766 16.4529 4.19588L13.5026 4.73954ZM13.2429 3.31301L13.502 4.7363L16.4535 4.19912L16.1945 2.77582L13.2429 3.31301ZM13.4217 3.5C13.3926 3.5 13.3588 3.48968 13.3278 3.46468C13.2962 3.43925 13.2567 3.38859 13.2429 3.31267L16.1945 2.77616C15.9473 1.41615 14.7388 0.5 13.4217 0.5V3.5ZM10.4122 3.5H13.4217V0.5H10.4122V3.5ZM13.5 12C13.5 12.3979 13.342 12.7794 13.0607 13.0607L15.182 15.182C16.0259 14.3381 16.5 13.1935 16.5 12H13.5ZM13.0607 10.9394C13.342 11.2207 13.5 11.6022 13.5 12H16.5C16.5 10.8066 16.0259 9.66197 15.182 8.81805L13.0607 10.9394ZM12 10.5C12.3978 10.5 12.7794 10.6581 13.0607 10.9394L15.182 8.81805C14.3381 7.97414 13.1935 7.50003 12 7.50003V10.5ZM10.9393 10.9394C11.2206 10.6581 11.6022 10.5 12 10.5V7.50003C10.8065 7.50003 9.66193 7.97414 8.81802 8.81805L10.9393 10.9394ZM10.5 12C10.5 11.6022 10.658 11.2207 10.9393 10.9394L8.81802 8.81805C7.9741 9.66197 7.5 10.8066 7.5 12H10.5ZM10.9393 13.0607C10.658 12.7794 10.5 12.3979 10.5 12H7.5C7.5 13.1935 7.9741 14.3381 8.81802 15.182L10.9393 13.0607ZM12 13.5C11.6022 13.5 11.2206 13.342 10.9393 13.0607L8.81802 15.182C9.66193 16.0259 10.8065 16.5 12 16.5V13.5ZM13.0607 13.0607C12.7794 13.342 12.3978 13.5 12 13.5V16.5C13.1935 16.5 14.3381 16.0259 15.182 15.182L13.0607 13.0607Z" fill="black" mask="url(#path-2-outside-1_1142_2598)"/>
</svg>
